<svg width="375" height="284" viewBox="0 0 375 284" fill="none" xmlns="http://www.w3.org/2000/svg">
<g clip-path="url(#clip0_2_145)">
<path d="M185.167 170.252L215.638 187.884V223.137L185.167 240.769L154.696 223.137V187.884L185.167 170.252ZM214.595 188.485L185.157 171.455L155.719 188.485V222.536L185.157 239.566L214.595 222.536V188.485Z" fill="#67B19F"/>
<path d="M125.258 170.252L155.729 187.884V223.137L125.258 240.769L94.7861 223.137V187.884L125.258 170.252ZM154.696 188.485L125.258 171.455L95.8195 188.485V222.536L125.258 239.566L154.696 222.536V188.485Z" fill="#67B19F"/>
<path d="M65.3481 170.252L95.8195 187.884V223.137L65.3481 240.769L34.8767 223.137V187.884L65.3481 170.252ZM94.7861 188.485L65.3481 171.455L35.9101 188.485V222.536L65.3481 239.566L94.7861 222.536V188.485Z" fill="#67B19F"/>
<path d="M334.936 118.274L365.407 135.906V171.159L334.936 188.791L304.464 171.159V135.906L334.936 118.274ZM364.374 136.507L334.936 119.477L305.498 136.507V170.558L334.936 187.588L364.374 170.558V136.507Z" fill="#67B19F"/>
<path d="M275.026 118.274L305.498 135.906V171.159L275.026 188.791L244.555 171.159V135.906L275.026 118.274ZM304.464 136.507L275.036 119.477L245.598 136.507V170.558L275.036 187.588L304.464 170.558V136.507Z" fill="#67B19F"/>
<path d="M215.117 118.274L245.588 135.906V171.159L215.117 188.791L184.645 171.159V135.906L215.117 118.274ZM244.555 136.507L215.117 119.477L185.679 136.507V170.558L215.117 187.588L244.555 170.558V136.507Z" fill="#67B19F"/>
<path d="M155.207 118.274L185.679 135.906V171.159L155.207 188.791L124.736 171.159V135.906L155.207 118.274ZM184.645 136.507L155.207 119.477L125.769 136.507V170.558L155.207 187.588L184.645 170.558V136.507Z" fill="#67B19F"/>
<path d="M95.3077 118.274L125.779 135.906V171.159L95.3077 188.791L64.8363 171.159V135.906L95.3077 118.274ZM124.736 136.507L95.2979 119.477L65.8599 136.507V170.558L95.2979 187.588L124.736 170.558V136.507Z" fill="#67B19F"/>
<path d="M304.986 66.2963L335.457 83.9279V119.181L304.986 136.813L274.514 119.181V83.9181L304.986 66.2963ZM334.414 84.5196L304.976 67.4895L275.548 84.5196V118.57L304.976 135.6L334.414 118.57V84.5196Z" fill="#67B19F"/>
<path d="M245.076 66.2963L275.548 83.9181V119.172L245.076 136.803L214.605 119.172V83.9181L245.076 66.2963ZM274.505 84.5196L245.067 67.4895L215.629 84.5196V118.57L245.067 135.6L274.505 118.57V84.5196Z" fill="#67B19F"/>
<path d="M125.258 66.2963L155.729 83.9279V119.181L125.258 136.813L94.7861 119.181V83.9181L125.258 66.2963ZM154.696 84.5196L125.258 67.4993L95.8195 84.5295V118.58L125.258 135.61L154.696 118.58V84.5196Z" fill="#67B19F"/>
<path d="M275.026 14.3085L305.498 31.9401V67.1936L275.026 84.8253L244.555 67.1936V31.9401L275.026 14.3085ZM304.464 32.5417L275.036 15.5115L245.598 32.5417V66.5921L275.036 83.6222L304.464 66.5921V32.5417Z" fill="#67B19F"/>
<g filter="url(#filter0_d_2_145)">
<path d="M350.122 236.006V188.584L308.529 164.523V116.401L266.936 92.3394V44.2172L224.614 19.7419L182.293 44.2172V92.3394L140.7 116.401V164.523L99.1068 188.584V236.213H-183V237.613H99.2151L141.409 262.02L183.002 237.958L224.595 262.02L266.188 237.958L307.781 262.02L350.102 237.544V237.406H411.98V236.006H350.122ZM183.73 45.0456L224.605 21.3986L265.479 45.0456V92.3394L252.94 99.5972L224.605 115.986L193.986 98.2758L183.73 92.3493V45.0456ZM182.283 236.706L141.409 260.353L100.534 236.706V189.412L141.409 165.765L164.577 179.167L182.283 189.412V236.706ZM162.569 176.346L142.127 164.523V117.229L183.002 93.582L206.269 107.042L223.876 117.229V164.523L206.269 174.709L183.002 188.17L162.569 176.346ZM265.479 236.706L224.605 260.353L183.73 236.706V189.412L193.986 183.486L224.605 165.775L252.94 182.164L265.479 189.422V236.706ZM245.765 176.346L225.323 164.523V117.229L245.765 105.405L266.208 93.582L307.082 117.229V164.523L286.64 176.346L266.198 188.17L245.765 176.346ZM348.675 236.706L307.801 260.353L266.926 236.706V189.412L284.632 179.167L307.801 165.765L348.675 189.412V236.706Z" fill="white"/>
</g>
<path d="M208.335 78.5931C208.08 79.5397 207.843 80.4963 207.627 81.4725C208.572 81.2063 209.536 80.9795 210.501 80.7724C210.757 79.8356 211.022 78.9086 211.328 78.0113C210.324 78.1888 209.32 78.3761 208.335 78.5931ZM232.744 66.8682L230.293 64.4128C229.427 64.5706 228.571 64.7382 227.734 64.9256L231.632 68.8306C231.012 69.797 230.323 70.6648 229.555 71.4536L224.024 65.9117C223.256 66.1582 222.518 66.4343 221.79 66.7499L227.931 72.9032C227.479 73.2385 227.016 73.5541 226.514 73.84C226.002 74.126 225.481 74.3824 224.949 74.6191L218.749 68.4066C218.227 68.7911 217.715 69.2152 217.253 69.6786C217.203 69.728 217.154 69.7871 217.115 69.8364L222.744 75.477C221.563 75.8813 220.343 76.2264 219.093 76.5223L215.068 72.4891C214.674 73.1202 214.31 73.7809 213.975 74.4711L216.554 77.0548C215.255 77.3111 213.936 77.5379 212.627 77.7648C212.322 78.6424 212.036 79.5595 211.77 80.4963C217.636 79.3425 223.758 78.741 228.689 75.9996C233.098 73.5343 235.539 68.732 237.183 63.1309C236.15 63.3379 235.126 63.5352 234.093 63.7225C233.679 64.827 233.236 65.8723 232.744 66.8682ZM200.668 81.0584L202.834 83.2278C203.149 83.07 203.483 82.9418 203.808 82.8038L205.767 84.7661C205.934 83.9082 206.111 83.0602 206.288 82.2121L206.032 81.9557C206.141 81.9163 206.259 81.8867 206.367 81.8571C206.584 80.8513 206.82 79.8652 207.076 78.8988C204.841 79.4214 202.666 80.0821 200.668 81.0584ZM234.516 62.48C235.52 62.2927 236.533 62.1053 237.527 61.8884C237.783 60.9516 238.01 59.9852 238.236 59.0188C237.291 59.285 236.327 59.5118 235.352 59.7189C235.096 60.6656 234.821 61.5827 234.516 62.48ZM235.677 58.4764C236.642 58.2595 237.586 58.0228 238.521 57.7467C238.541 57.6678 238.561 57.5889 238.571 57.51L238.738 57.6777C239.516 57.441 240.283 57.1846 241.021 56.8888L239.083 54.9461C239.171 54.4925 239.26 54.0389 239.348 53.5755L237.183 51.406C236.73 53.7825 236.248 56.1689 235.677 58.4764Z" fill="white"/>
<path d="M214.27 66.7006C209.713 71.2663 207.981 79.1453 206.515 86.9158C207.233 87.6357 207.961 88.3654 208.68 89.0853C210.146 81.3147 211.869 73.4357 216.436 68.87C217.302 68.0022 218.266 67.2627 219.349 66.6513C226.908 62.4406 237.262 63.2788 245.195 59.4329C244.476 58.7131 243.748 57.9833 243.029 57.2635C235.096 61.1093 224.742 60.2711 217.184 64.4818C216.091 65.0932 215.136 65.8328 214.27 66.7006Z" fill="white"/>
<path d="M275.902 132.257C269.918 132.257 265.036 136.941 264.682 142.858H287.132C286.768 136.941 281.886 132.257 275.902 132.257Z" fill="white"/>
<path d="M264.672 144.12C264.977 150.076 269.879 154.819 275.902 154.819C281.926 154.819 286.827 150.076 287.132 144.12H264.672Z" fill="white"/>
<path d="M255.175 124.063C251.198 124.063 247.95 127.317 247.95 131.291L247.96 153.163C247.96 155.155 248.777 156.959 250.086 158.271C251.395 159.582 253.196 160.401 255.184 160.401C259.151 160.401 262.399 157.147 262.399 153.173V131.301C262.389 127.317 259.141 124.063 255.175 124.063ZM260.844 142.621H249.496V131.527C249.496 128.402 252.045 125.847 255.175 125.847C258.294 125.847 260.844 128.402 260.844 131.527V142.621Z" fill="white"/>
<path d="M141.222 192.361C141.222 192.361 128.87 213.089 128.87 219.923C128.87 226.756 134.401 232.298 141.222 232.298C148.052 232.298 153.574 226.746 153.574 219.923C153.574 213.089 141.222 192.361 141.222 192.361ZM141.222 229.705C135.838 229.705 131.458 225.317 131.458 219.923C131.458 216.136 136.773 205.437 141.222 197.548C145.66 205.446 150.985 216.136 150.985 219.923C150.985 225.317 146.605 229.705 141.222 229.705Z" fill="white"/>
<path d="M139.932 225.829C137.501 224.508 135.986 221.954 135.986 219.183C135.986 218.66 135.562 218.236 135.041 218.236C134.519 218.236 134.096 218.66 134.096 219.183C134.096 222.644 135.986 225.839 139.037 227.496C139.184 227.575 139.332 227.614 139.489 227.614C139.824 227.614 140.139 227.427 140.316 227.121C140.562 226.648 140.395 226.076 139.932 225.829Z" fill="white"/>
<path d="M201.692 126.834C201.692 126.834 200.304 128.175 196.023 128.175C195.078 128.175 193.986 128.106 192.736 127.948C185.551 127.021 182.48 123.836 182.48 123.836C182.48 123.836 179.409 127.021 172.225 127.948C170.975 128.106 169.882 128.175 168.937 128.175C164.666 128.175 163.268 126.834 163.268 126.834C163.268 126.834 159.115 151.536 182.48 165.105C205.845 151.536 201.692 126.834 201.692 126.834ZM182.49 162.491C174.055 157.245 168.622 149.869 166.349 140.531C165.305 136.271 165.187 132.494 165.266 130.058C166.25 130.275 167.461 130.413 168.947 130.413C170.059 130.413 171.26 130.334 172.52 130.167C177.48 129.526 180.728 127.859 182.49 126.666C184.252 127.849 187.5 129.526 192.45 130.167C193.71 130.334 194.921 130.413 196.033 130.413C197.519 130.413 198.739 130.265 199.714 130.058C199.911 136.517 198.621 152.443 182.49 162.491Z" fill="white"/>
<path d="M185.187 135.373H179.862V140.748H174.508V146.082H179.862V151.447H185.187V146.082H190.551V140.748H185.187V135.373Z" fill="white"/>
<path d="M246.208 210.831C245.874 204.441 240.608 199.618 233.965 199.618C233.768 199.618 233.571 199.618 233.364 199.628C229.221 199.796 226.101 202.498 224.536 204.194C223 202.478 219.91 199.727 215.776 199.5C215.501 199.48 215.235 199.48 214.969 199.48C208.444 199.48 203.208 204.224 202.775 210.505C202.371 216.432 206.406 221.579 209.467 224.942C213.434 229.291 219.595 233.975 223.63 236.351L224.29 236.746L224.959 236.361C229.034 234.044 235.254 229.448 239.289 225.159C242.419 221.855 246.523 216.757 246.208 210.831ZM237.36 223.334C233.344 227.614 227.626 231.677 224.319 233.649C221.042 231.618 215.392 227.476 211.436 223.137C210.668 222.299 209.841 221.333 209.044 220.278H217.439C217.577 220.278 217.715 220.218 217.784 220.11L218.247 219.498L218.827 222.131C218.867 222.309 219.034 222.427 219.241 222.437C219.447 222.437 219.615 222.309 219.654 222.131L220.205 219.696L220.884 223.295C220.914 223.472 221.091 223.611 221.298 223.611C221.494 223.611 221.672 223.482 221.711 223.305L223.788 213.227L225.51 228.147C225.53 228.334 225.707 228.482 225.923 228.482C226.13 228.482 226.307 228.344 226.337 228.166L227.823 219.282L228.423 223.078C228.453 223.256 228.61 223.394 228.817 223.403C229.014 223.413 229.191 223.305 229.24 223.137L230.274 219.863L230.677 221.717C230.717 221.885 230.874 222.013 231.061 222.023C231.248 222.023 231.415 221.934 231.484 221.776L232.026 220.416L232.498 221.086C232.567 221.185 232.695 221.254 232.843 221.254C232.99 221.254 233.098 221.204 233.187 221.116L233.905 220.297H239.978C239.102 221.421 238.197 222.447 237.36 223.334ZM240.519 219.538H233.689C233.561 219.538 233.443 219.587 233.364 219.676L232.882 220.218L232.262 219.351C232.173 219.232 232.016 219.163 231.868 219.183C231.701 219.193 231.563 219.291 231.514 219.429L231.199 220.228L230.746 218.177C230.707 218.009 230.539 217.881 230.352 217.871H230.343C230.156 217.871 229.988 217.98 229.939 218.147L228.965 221.224L228.236 216.629C228.207 216.442 228.03 216.303 227.823 216.303C227.616 216.303 227.439 216.442 227.41 216.619L225.992 225.109L224.319 210.545C224.3 210.357 224.122 210.219 223.916 210.209C223.699 210.209 223.532 210.337 223.492 210.515L221.317 221.076L220.658 217.576C220.628 217.398 220.451 217.26 220.245 217.26C220.038 217.26 219.871 217.388 219.831 217.566L219.25 220.139L218.886 218.473C218.857 218.315 218.709 218.197 218.542 218.177C218.384 218.157 218.217 218.217 218.128 218.335L217.223 219.528H208.513C206.702 216.954 205.225 213.897 205.452 210.683C205.737 206.442 209.103 202.143 214.989 202.143C215.205 202.143 215.422 202.153 215.648 202.163C220.245 202.419 223.414 207.004 223.443 207.054L224.526 208.671L225.638 207.073C225.668 207.024 228.876 202.488 233.502 202.301C239.693 202.054 243.334 206.649 243.571 210.969C243.708 214.085 242.291 217.043 240.519 219.538Z" fill="white"/>
<path d="M329.345 217.645C329.345 215.002 327.21 212.862 324.572 212.862C321.934 212.862 319.798 215.002 319.798 217.645C319.798 219.922 321.393 221.826 323.519 222.299V230.336C323.519 236.154 318.794 240.877 312.997 240.877C307.19 240.877 302.476 236.144 302.476 230.336V227.062H307.112C309.681 227.062 311.856 225.139 312.171 222.575L314.828 201.117C315.005 199.668 314.552 198.198 313.588 197.104C312.623 196.009 311.226 195.378 309.769 195.378H307.85C307.269 195.378 306.797 195.851 306.797 196.433C306.797 197.015 307.269 197.488 307.85 197.488H309.769C310.625 197.488 311.442 197.863 312.013 198.504C312.584 199.145 312.85 200.013 312.741 200.861L310.084 222.319C309.897 223.818 308.618 224.952 307.112 224.952H295.724C294.218 224.952 292.939 223.818 292.752 222.319L290.095 200.861C289.986 200.003 290.252 199.145 290.823 198.504C291.394 197.863 292.211 197.488 293.067 197.488H295.783C296.364 197.488 296.836 197.015 296.836 196.433C296.836 195.851 296.364 195.378 295.783 195.378H293.067C291.6 195.378 290.213 196.009 289.248 197.104C288.284 198.198 287.831 199.668 288.008 201.117L290.665 222.575C290.98 225.129 293.156 227.062 295.724 227.062H300.36V230.336C300.36 237.308 306.029 242.988 312.988 242.988C319.946 242.988 325.615 237.308 325.615 230.336V222.299C327.751 221.826 329.345 219.922 329.345 217.645Z" fill="white"/>
</g>
<defs>
<filter id="filter0_d_2_145" x="-191" y="15.7419" width="610.98" height="258.278" filterUnits="userSpaceOnUse" color-interpolation-filters="sRGB">
<feFlood flood-opacity="0" result="BackgroundImageFix"/>
<feColorMatrix in="SourceAlpha" type="matrix" values="0 0 0 0 0 0 0 0 0 0 0 0 0 0 0 0 0 0 127 0" result="hardAlpha"/>
<feOffset dy="4"/>
<feGaussianBlur stdDeviation="4"/>
<feComposite in2="hardAlpha" operator="out"/>
<feColorMatrix type="matrix" values="0 0 0 0 0.0643229 0 0 0 0 0.395833 0 0 0 0 0.312003 0 0 0 1 0"/>
<feBlend mode="normal" in2="BackgroundImageFix" result="effect1_dropShadow_2_145"/>
<feBlend mode="normal" in="SourceGraphic" in2="effect1_dropShadow_2_145" result="shape"/>
</filter>
<clipPath id="clip0_2_145">
<rect width="595" height="284" fill="white" transform="translate(-183)"/>
</clipPath>
</defs>
</svg>
