<svg width="16" height="16" viewBox="0 0 16 16" fill="none" xmlns="http://www.w3.org/2000/svg">
<path fill-rule="evenodd" clip-rule="evenodd" d="M8.00009 14.4C11.5347 14.4 14.4001 11.5346 14.4001 7.99998C14.4001 4.46535 11.5347 1.59998 8.00009 1.59998C4.46547 1.59998 1.6001 4.46535 1.6001 7.99998C1.6001 11.5346 4.46547 14.4 8.00009 14.4ZM8.80009 4.79998C8.80009 4.35815 8.44192 3.99998 8.00009 3.99998C7.55827 3.99998 7.20009 4.35815 7.20009 4.79998V7.99998C7.20009 8.21215 7.28438 8.41563 7.43441 8.56566L9.69715 10.8284C10.0096 11.1408 10.5161 11.1408 10.8285 10.8284C11.1409 10.516 11.1409 10.0095 10.8285 9.69703L8.80009 7.6686V4.79998Z" fill="#929292"/>
</svg>
