<svg width="24" height="24" viewBox="0 0 24 24" fill="none" xmlns="http://www.w3.org/2000/svg">
<path d="M18.75 4H5.25C4.0125 4 3 4.96 3 6.13333V14.1333C3 15.3067 4.0125 16.2667 5.25 16.2667H6.9375V19.4667C6.9375 19.68 7.05 19.84 7.275 19.9467C7.33125 20 7.44375 20 7.5 20C7.6125 20 7.78125 19.9467 7.89375 19.8933L12.225 16.2667H18.75C19.9875 16.2667 21 15.3067 21 14.1333V6.13333C21 4.96 19.9875 4 18.75 4ZM14.8125 12H9.75C9.4125 12 9.1875 11.7867 9.1875 11.4667C9.1875 11.1467 9.4125 10.9333 9.75 10.9333H14.8125C15.15 10.9333 15.375 11.1467 15.375 11.4667C15.375 11.7867 15.15 12 14.8125 12ZM14.8125 9.33333H9.75C9.4125 9.33333 9.1875 9.12 9.1875 8.8C9.1875 8.48 9.4125 8.26667 9.75 8.26667H14.8125C15.15 8.26667 15.375 8.48 15.375 8.8C15.375 9.12 15.15 9.33333 14.8125 9.33333Z" fill="#1C445D"/>
</svg>
