<svg width="50" height="50" viewBox="0 0 50 50" fill="none" xmlns="http://www.w3.org/2000/svg">
<rect width="50" height="50" rx="10" fill="#1C445D"/>
<path d="M26.4472 33.9051C26.786 33.7376 27 33.3951 27 33.0204V27.6999C27 27.4376 27.1054 27.186 27.2929 27.0005L33.414 20.9458C33.789 20.5748 34 20.0713 34 19.5461V16.9892C34 16.4422 33.553 16 33 16H17C16.447 16 16 16.4422 16 16.9892V19.5461C16 20.0713 16.211 20.5748 16.586 20.9458L22.7071 27.0005C22.8946 27.186 23 27.4376 23 27.6999V34.0096C23 34.7449 23.7823 35.2231 24.4472 34.8943L26.4472 33.9051Z" fill="white"/>
</svg>
