<svg width="24" height="24" viewBox="0 0 24 24" fill="none" xmlns="http://www.w3.org/2000/svg">
<path d="M9.58718 19.896V17.144C9.58718 16.4416 10.1239 15.8721 10.7861 15.8721H13.2064C13.5244 15.8721 13.8293 16.0061 14.0541 16.2446C14.279 16.4832 14.4053 16.8067 14.4053 17.144V19.896C14.4033 20.1881 14.5112 20.4689 14.7052 20.6762C14.8991 20.8834 15.163 21 15.4383 21H17.0895C17.8607 21.0021 18.6011 20.6785 19.1471 20.1007C19.6931 19.5229 20 18.7383 20 17.92V10.0802C20 9.41921 19.7238 8.79225 19.246 8.3682L13.6287 3.60828C12.6515 2.77371 11.2515 2.80065 10.3035 3.67228L4.81433 8.3682C4.31389 8.77975 4.01478 9.40857 4 10.0802V17.912C4 19.6175 5.30306 21 6.91046 21H8.52403C9.09577 21 9.56042 20.5106 9.56456 19.904L9.58718 19.896Z" fill="#1C445D"/>
</svg>
