<svg width="16" height="16" viewBox="0 0 16 16" fill="none" xmlns="http://www.w3.org/2000/svg">
<path d="M7.99992 14C7.15788 13.2817 6.37738 12.4943 5.66659 11.646C4.59992 10.372 3.33325 8.47464 3.33325 6.66664C3.33231 4.77834 4.46942 3.07557 6.21396 2.3529C7.95851 1.63024 9.96663 2.03013 11.3013 3.36597C12.1789 4.23971 12.6705 5.42823 12.6666 6.66664C12.6666 8.47464 11.3999 10.372 10.3333 11.646C9.62246 12.4943 8.84196 13.2817 7.99992 14ZM7.99992 4.66664C7.28539 4.66664 6.62513 5.04784 6.26787 5.66664C5.9106 6.28544 5.9106 7.04784 6.26787 7.66664C6.62513 8.28544 7.28539 8.66664 7.99992 8.66664C9.10449 8.66664 9.99992 7.77121 9.99992 6.66664C9.99992 5.56207 9.10449 4.66664 7.99992 4.66664Z" fill="#929292"/>
</svg>
