<svg width="40" height="40" viewBox="0 0 40 40" fill="none" xmlns="http://www.w3.org/2000/svg">
<circle opacity="0.2" cx="20" cy="20" r="20" fill="#489F89"/>
<path d="M20.0003 27.5C18.9478 26.6022 17.9721 25.6179 17.0837 24.5575C15.7503 22.965 14.167 20.5933 14.167 18.3333C14.1658 15.973 15.5872 13.8445 17.7679 12.9412C19.9486 12.0378 22.4587 12.5377 24.127 14.2075C25.224 15.2997 25.8386 16.7853 25.8337 18.3333C25.8337 20.5933 24.2503 22.965 22.917 24.5575C22.0285 25.6179 21.0529 26.6022 20.0003 27.5ZM20.0003 15.8333C19.1072 15.8333 18.2818 16.3098 17.8353 17.0833C17.3887 17.8568 17.3887 18.8098 17.8353 19.5833C18.2818 20.3568 19.1072 20.8333 20.0003 20.8333C21.381 20.8333 22.5003 19.7141 22.5003 18.3333C22.5003 16.9526 21.381 15.8333 20.0003 15.8333Z" fill="#489F89"/>
</svg>
