<svg width="24" height="24" viewBox="0 0 24 24" fill="none" xmlns="http://www.w3.org/2000/svg">
<path d="M16.375 3H7.625C6.1375 3 5 4.17 5 5.7V11.1H12.525L10.5125 9.03C10.1625 8.67 10.1625 8.13 10.5125 7.77C10.8625 7.41 11.3875 7.41 11.7375 7.77L15.2375 11.37C15.5875 11.73 15.5875 12.27 15.2375 12.63L11.7375 16.23C11.3875 16.59 10.8625 16.59 10.5125 16.23C10.1625 15.87 10.1625 15.33 10.5125 14.97L12.525 12.9H5V18.3C5 19.83 6.1375 21 7.625 21H16.375C17.8625 21 19 19.83 19 18.3V5.7C19 4.17 17.8625 3 16.375 3Z" fill="#1C445D"/>
</svg>
