<svg width="160" height="199" viewBox="0 0 160 199" fill="none" xmlns="http://www.w3.org/2000/svg">
<path d="M125.528 35.2658H113.548C113.548 35.2658 113.491 42.164 113.412 43.4847H125.528C130.064 43.4847 133.746 47.1742 133.746 51.7036V72.2472C133.746 76.7838 130.064 80.4661 125.528 80.4661H102.588C97.8077 80.4661 94.262 79.9924 91.635 79.1023C87.8954 77.8318 86.0077 75.7071 85.0674 72.843C83.2156 72.9292 81.493 72.9363 79.9928 72.9363C78.8731 72.9363 77.7462 72.9363 76.6624 72.9579C78.0046 79.332 81.658 85.1749 91.6421 87.5509C93.6519 88.0318 95.9416 88.3548 98.4896 88.5343V107.52C98.4896 112.05 94.8003 115.739 90.2784 115.739H69.7288C65.1997 115.739 61.5104 112.057 61.5104 107.52V84.5792C61.5104 66.0885 68.4727 66.0885 80 66.0885C91.2761 66.0885 106.708 66.0813 106.708 39.3789V16.4378C106.708 7.37187 99.3366 0 90.2784 0H69.7288C60.6634 0 53.292 7.37187 53.292 16.4378V35.273H34.465C25.3996 35.2658 18.0282 42.6377 18.0282 51.7036V72.2472C18.0282 81.3131 25.3996 88.685 34.465 88.685H46.4445V84.5792C46.4445 83.1435 46.4947 81.7869 46.5809 80.4733H34.465C29.9287 80.4733 26.2466 76.791 26.2466 72.2544V51.7036C26.2466 47.1742 29.9287 43.4847 34.465 43.4847H57.4048C62.1923 43.4847 65.7308 43.9585 68.3579 44.8486C72.0974 46.1191 73.9851 48.2438 74.9326 51.1078C76.7844 51.0217 78.507 51.0145 80 51.0145C81.1269 51.0145 82.2538 51.0145 83.3448 50.993C82.0026 44.626 78.3491 38.7831 68.365 36.4C66.3553 35.919 64.0728 35.596 61.5176 35.4238V16.4378C61.5176 11.9084 65.2069 8.21889 69.736 8.21889H90.2784C94.8075 8.21889 98.4896 11.9012 98.4896 16.4378V39.3717C98.4896 57.8624 91.5345 57.8624 80 57.8624C68.7311 57.8624 53.2991 57.8624 53.2991 84.572V107.513C53.2991 116.572 60.6706 123.944 69.736 123.944H90.2784C99.3366 123.944 106.708 116.572 106.708 107.513V88.6778H125.535C134.6 88.6778 141.972 81.306 141.972 72.2401V51.7036C141.965 42.6377 134.593 35.2658 125.528 35.2658Z" fill="#F7F4ED"/>
<path d="M11.0991 138.503H15.6502L20.457 150.23H20.6616L25.4684 138.503H30.0195V155.958H26.44V144.597H26.2951L21.7781 155.873H19.3406L14.8235 144.554H14.6786V155.958H11.0991V138.503ZM32.0373 138.503H36.1708L40.1509 146.02H40.3214L44.3015 138.503H48.435L42.0685 149.787V155.958H38.4038V149.787L32.0373 138.503ZM56.0053 155.958V138.503H59.6957V145.705H67.1871V138.503H70.869V155.958H67.1871V148.748H59.6957V155.958H56.0053ZM73.9116 155.958V138.503H85.6729V141.546H77.6019V145.705H85.0678V148.748H77.6019V152.915H85.707V155.958H73.9116ZM91.6154 155.958H87.6609L93.6864 138.503H98.4421L104.459 155.958H100.505L96.1325 142.492H95.9961L91.6154 155.958ZM91.3683 149.097H100.709V151.978H91.3683V149.097ZM106.56 155.958V138.503H110.25V152.915H117.733V155.958H106.56ZM117.333 141.546V138.503H131.668V141.546H126.324V155.958H122.676V141.546H117.333ZM134.029 155.958V138.503H137.719V145.705H145.211V138.503H148.892V155.958H145.211V148.748H137.719V155.958H134.029ZM22.1667 173.145C22.0474 172.73 21.8798 172.364 21.6639 172.046C21.4479 171.722 21.1837 171.449 20.8712 171.228C20.5644 171 20.2121 170.827 19.8144 170.708C19.4224 170.588 18.9877 170.529 18.5104 170.529C17.6184 170.529 16.8343 170.75 16.1582 171.194C15.4877 171.637 14.965 172.282 14.59 173.128C14.215 173.969 14.0275 174.998 14.0275 176.213C14.0275 177.429 14.2121 178.463 14.5815 179.316C14.9508 180.168 15.4735 180.819 16.1496 181.267C16.8258 181.711 17.6241 181.932 18.5445 181.932C19.3798 181.932 20.0928 181.784 20.6837 181.489C21.2803 181.188 21.7349 180.765 22.0474 180.219C22.3656 179.674 22.5246 179.029 22.5246 178.284L23.2746 178.395H18.7746V175.617H26.0786V177.816C26.0786 179.35 25.7548 180.668 25.107 181.77C24.4593 182.867 23.5673 183.713 22.4309 184.31C21.2945 184.901 19.9934 185.196 18.5275 185.196C16.8911 185.196 15.4536 184.836 14.215 184.114C12.9764 183.387 12.0104 182.355 11.3173 181.02C10.6298 179.679 10.286 178.088 10.286 176.248C10.286 174.833 10.4906 173.571 10.8996 172.463C11.3144 171.35 11.894 170.407 12.6383 169.634C13.3826 168.861 14.2491 168.273 15.2377 167.87C16.2264 167.466 17.2974 167.265 18.4508 167.265C19.4394 167.265 20.3599 167.409 21.2121 167.699C22.0644 167.983 22.8201 168.387 23.4792 168.909C24.144 169.432 24.6866 170.054 25.107 170.776C25.5275 171.492 25.7974 172.282 25.9167 173.145H22.1667ZM56.4319 167.503H60.1222V178.838C60.1222 180.111 59.8183 181.225 59.2103 182.179C58.608 183.134 57.7643 183.878 56.679 184.412C55.5938 184.941 54.3296 185.205 52.8864 185.205C51.4376 185.205 50.1705 184.941 49.0853 184.412C48.0001 183.878 47.1563 183.134 46.554 182.179C45.9518 181.225 45.6506 180.111 45.6506 178.838V167.503H49.341V178.523C49.341 179.188 49.4859 179.779 49.7756 180.296C50.0711 180.813 50.4859 181.219 51.02 181.515C51.554 181.81 52.1762 181.958 52.8864 181.958C53.6023 181.958 54.2245 181.81 54.7529 181.515C55.287 181.219 55.6989 180.813 55.9887 180.296C56.2842 179.779 56.4319 179.188 56.4319 178.523V167.503ZM83.6488 167.503V184.958H79.9585V167.503H83.6488ZM109.673 184.958H103.485V167.503H109.724C111.479 167.503 112.991 167.853 114.258 168.551C115.525 169.245 116.499 170.242 117.181 171.543C117.869 172.844 118.212 174.401 118.212 176.213C118.212 178.032 117.869 179.594 117.181 180.901C116.499 182.208 115.519 183.211 114.241 183.909C112.968 184.608 111.445 184.958 109.673 184.958ZM107.175 181.796H109.519C110.61 181.796 111.528 181.603 112.272 181.216C113.022 180.824 113.584 180.219 113.959 179.401C114.34 178.577 114.53 177.515 114.53 176.213C114.53 174.924 114.34 173.87 113.959 173.051C113.584 172.233 113.025 171.631 112.28 171.245C111.536 170.858 110.619 170.665 109.528 170.665H107.175V181.796ZM137.746 184.958V167.503H149.507V170.546H141.436V174.705H148.902V177.748H141.436V181.915H149.541V184.958H137.746Z" fill="#F7F4ED"/>
</svg>
