<svg width="40" height="40" viewBox="0 0 40 40" fill="none" xmlns="http://www.w3.org/2000/svg">
<circle opacity="0.2" cx="20" cy="20" r="20" fill="#489F89"/>
<path d="M12.003 15.884L20 19.882L27.997 15.884C27.9674 15.3744 27.7441 14.8955 27.3728 14.5452C27.0016 14.195 26.5104 13.9999 26 14H14C13.4896 13.9999 12.9984 14.195 12.6272 14.5452C12.2559 14.8955 12.0326 15.3744 12.003 15.884Z" fill="#489F89"/>
<path d="M28 18.118L20 22.118L12 18.118V24C12 24.5304 12.2107 25.0391 12.5858 25.4142C12.9609 25.7893 13.4696 26 14 26H26C26.5304 26 27.0391 25.7893 27.4142 25.4142C27.7893 25.0391 28 24.5304 28 24V18.118Z" fill="#489F89"/>
</svg>
