<svg width="30" height="30" viewBox="0 0 30 30" fill="none" xmlns="http://www.w3.org/2000/svg">
<path fill-rule="evenodd" clip-rule="evenodd" d="M4.5 7.5C4.5 6.67157 5.17157 6 6 6H24C24.8284 6 25.5 6.67157 25.5 7.5C25.5 8.32843 24.8284 9 24 9H6C5.17157 9 4.5 8.32843 4.5 7.5Z" fill="#1C445D"/>
<path fill-rule="evenodd" clip-rule="evenodd" d="M4.5 15C4.5 14.1716 5.17157 13.5 6 13.5H15C15.8284 13.5 16.5 14.1716 16.5 15C16.5 15.8284 15.8284 16.5 15 16.5H6C5.17157 16.5 4.5 15.8284 4.5 15Z" fill="#1C445D"/>
<path fill-rule="evenodd" clip-rule="evenodd" d="M4.5 22.5C4.5 21.6716 5.17157 21 6 21H24C24.8284 21 25.5 21.6716 25.5 22.5C25.5 23.3284 24.8284 24 24 24H6C5.17157 24 4.5 23.3284 4.5 22.5Z" fill="#1C445D"/>
</svg>
