<svg width="24" height="24" viewBox="0 0 24 24" fill="none" xmlns="http://www.w3.org/2000/svg">
<path fill-rule="evenodd" clip-rule="evenodd" d="M6.28571 10.875V8.625C6.28571 5.5184 8.84409 3 12 3C15.1559 3 17.7143 5.5184 17.7143 8.625V10.875C18.9767 10.875 20 11.8824 20 13.125V18.75C20 19.9926 18.9767 21 17.7143 21H6.28571C5.02335 21 4 19.9926 4 18.75V13.125C4 11.8824 5.02335 10.875 6.28571 10.875ZM15.4286 8.625V10.875H8.57143V8.625C8.57143 6.76104 10.1065 5.25 12 5.25C13.8935 5.25 15.4286 6.76104 15.4286 8.625Z" fill="#1C445D"/>
</svg>
