<svg width="40" height="40" viewBox="0 0 40 40" fill="none" xmlns="http://www.w3.org/2000/svg">
<circle opacity="0.2" cx="20" cy="20" r="20" fill="#489F89"/>
<g clip-path="url(#clip0_5_16)">
<path d="M22.917 10.8333H16.2503C15.1003 10.8333 14.167 11.7667 14.167 12.9167V27.0833C14.167 28.2333 15.1003 29.1667 16.2503 29.1667H22.917C24.067 29.1667 25.0003 28.2333 25.0003 27.0833V12.9167C25.0003 11.7667 24.067 10.8333 22.917 10.8333ZM19.5837 28.3333C18.892 28.3333 18.3337 27.775 18.3337 27.0833C18.3337 26.3917 18.892 25.8333 19.5837 25.8333C20.2753 25.8333 20.8337 26.3917 20.8337 27.0833C20.8337 27.775 20.2753 28.3333 19.5837 28.3333ZM23.3337 25H15.8337V13.3333H23.3337V25Z" fill="#489F89"/>
</g>
<defs>
<clipPath id="clip0_5_16">
<rect width="20" height="20" fill="white" transform="translate(10 10)"/>
</clipPath>
</defs>
</svg>
