<svg width="24" height="24" viewBox="0 0 24 24" fill="none" xmlns="http://www.w3.org/2000/svg">
<path fill-rule="evenodd" clip-rule="evenodd" d="M19.3073 4.93106L13.3506 2.37817C12.4881 2.00855 11.5119 2.00855 10.6494 2.37817L4.69266 4.93106C4.27245 5.11115 4 5.52434 4 5.98152V11.9848C4 14.1993 5.06948 16.2775 6.87151 17.5647L10.6715 20.279C11.4662 20.8466 12.5338 20.8466 13.3285 20.279L17.1285 17.5647C18.9305 16.2775 20 14.1993 20 11.9848V5.98152C20 5.52434 19.7275 5.11115 19.3073 4.93106ZM16.2096 9.28146C16.5546 8.8502 16.4847 8.22091 16.0534 7.8759C15.6221 7.53089 14.9929 7.60081 14.6478 8.03207L10.7744 12.8739L9.27868 11.3782C8.88815 10.9877 8.25499 10.9877 7.86446 11.3782C7.47394 11.7688 7.47394 12.4019 7.86446 12.7924L9.75517 14.6831C10.3873 15.3153 11.4286 15.2576 11.9871 14.5595L16.2096 9.28146Z" fill="#1C445D"/>
</svg>
