<svg width="104" height="139" viewBox="0 0 104 139" fill="none" xmlns="http://www.w3.org/2000/svg">
<path d="M86.066 26.4677H77.1193C77.1193 26.4677 77.0764 31.6449 77.0175 32.6362H86.066C89.4538 32.6362 92.2037 35.4052 92.2037 38.8046V54.223C92.2037 57.6278 89.4538 60.3914 86.066 60.3914H68.9339C65.3638 60.3914 62.7157 60.0359 60.7538 59.3679C57.961 58.4143 56.5512 56.8197 55.8489 54.6702C54.4659 54.7348 53.1794 54.7402 52.0591 54.7402C51.2229 54.7402 50.3813 54.7402 49.5718 54.7563C50.5742 59.5402 53.3027 63.9255 60.7591 65.7087C62.2601 66.0696 63.9701 66.3121 65.873 66.4467V80.6961C65.873 84.0955 63.1178 86.8645 59.7407 86.8645H44.3936C41.0111 86.8645 38.2559 84.1009 38.2559 80.6961V63.4784C38.2559 49.6007 43.4555 49.6007 52.0644 49.6007C60.4858 49.6007 72.0108 49.5953 72.0108 29.5546V12.3369C72.0108 5.53274 66.5056 0 59.7407 0H44.3936C37.6233 0 32.1181 5.53274 32.1181 12.3369V26.4731H18.0576C11.2873 26.4677 5.78207 32.0005 5.78207 38.8046V54.223C5.78207 61.0271 11.2873 66.5599 18.0576 66.5599H27.0042V63.4784C27.0042 62.4009 27.0417 61.3827 27.1061 60.3968H18.0576C14.6697 60.3968 11.9198 57.6332 11.9198 54.2284V38.8046C11.9198 35.4052 14.6697 32.6362 18.0576 32.6362H35.1897C38.7651 32.6362 41.4078 32.9917 43.3698 33.6597C46.1626 34.6133 47.5724 36.2079 48.2799 38.3575C49.6629 38.2928 50.9495 38.2874 52.0644 38.2874C52.906 38.2874 53.7476 38.2874 54.5624 38.2713C53.56 33.4927 50.8315 29.1075 43.3751 27.3189C41.8742 26.958 40.1695 26.7155 38.2612 26.5862V12.3369C38.2612 8.9375 41.0165 6.16844 44.399 6.16844H59.7407C63.1231 6.16844 65.873 8.93211 65.873 12.3369V29.5492C65.873 43.4269 60.6787 43.4269 52.0644 43.4269C43.6485 43.4269 32.1235 43.4269 32.1235 63.473V80.6907C32.1235 87.4895 37.6287 93.0222 44.399 93.0222H59.7407C66.5056 93.0222 72.0108 87.4895 72.0108 80.6907V66.5545H86.0713C92.8416 66.5545 98.3468 61.0217 98.3468 54.2176V38.8046C98.3415 32.0005 92.8363 26.4677 86.066 26.4677Z" fill="#489F89"/>
<path d="M0.607222 103.949H4.00614L7.59602 112.751H7.74878L11.3386 103.949H14.7376V117.049H12.0643V108.523H11.9561L8.58259 116.985H6.7622L3.38874 108.491H3.28053V117.049H0.607222V103.949Z" fill="#1C445D"/>
<path d="M16.2445 103.949H19.3315L22.304 109.591H22.4313L25.4038 103.949H28.4908L23.7361 112.418V117.049H20.9992V112.418L16.2445 103.949Z" fill="#1C445D"/>
<path d="M34.1445 117.049V103.949H36.9006V109.354H42.4954V103.949H45.2451V117.049H42.4954V111.638H36.9006V117.049H34.1445Z" fill="#1C445D"/>
<path d="M47.5174 117.049V103.949H56.3012V106.233H50.2735V109.354H55.8492V111.638H50.2735V114.766H56.3266V117.049H47.5174Z" fill="#1C445D"/>
<path d="M60.7392 117.049H57.7858L62.2859 103.949H65.8376L70.3313 117.049H67.3779L64.1126 106.943H64.0108L60.7392 117.049ZM60.5546 111.9H67.5306V114.062H60.5546V111.9Z" fill="#1C445D"/>
<path d="M71.9002 117.049V103.949H74.6563V114.766H80.2448V117.049H71.9002Z" fill="#1C445D"/>
<path d="M79.9456 106.233V103.949H90.6516V106.233H86.6607V117.049H83.9365V106.233H79.9456Z" fill="#1C445D"/>
<path d="M92.4147 117.049V103.949H95.1708V109.354H100.766V103.949H103.515V117.049H100.766V111.638H95.1708V117.049H92.4147Z" fill="#1C445D"/>
<path d="M8.87284 129.949C8.78373 129.638 8.65855 129.363 8.4973 129.124C8.33606 128.881 8.13874 128.676 7.90536 128.51C7.67622 128.339 7.41313 128.209 7.11609 128.12C6.8233 128.03 6.49869 127.985 6.14225 127.985C5.47604 127.985 4.89046 128.152 4.3855 128.484C3.88478 128.817 3.4944 129.301 3.21434 129.936C2.93428 130.567 2.79424 131.339 2.79424 132.252C2.79424 133.164 2.93215 133.94 3.20797 134.58C3.48379 135.22 3.87418 135.708 4.37913 136.045C4.88409 136.377 5.48028 136.544 6.16771 136.544C6.79148 136.544 7.32402 136.433 7.76533 136.211C8.21088 135.985 8.55035 135.667 8.78373 135.258C9.02136 134.849 9.14017 134.365 9.14017 133.806L9.70029 133.889H6.33956V131.804H11.7944V133.454C11.7944 134.606 11.5525 135.595 11.0688 136.422C10.585 137.245 9.91883 137.881 9.07016 138.328C8.22149 138.772 7.24976 138.994 6.15498 138.994C4.93289 138.994 3.85933 138.723 2.93428 138.181C2.00923 137.635 1.28786 136.861 0.770168 135.859C0.256723 134.853 0 133.659 0 132.277C0 131.215 0.152761 130.269 0.458282 129.437C0.768046 128.601 1.20087 127.894 1.75675 127.314C2.31262 126.734 2.95974 126.292 3.69808 125.99C4.43642 125.687 5.23629 125.535 6.09769 125.535C6.83603 125.535 7.52346 125.644 8.15996 125.862C8.79646 126.075 9.36083 126.378 9.85305 126.77C10.3495 127.162 10.7548 127.629 11.0688 128.171C11.3828 128.708 11.5843 129.301 11.6734 129.949H8.87284Z" fill="#1C445D"/>
<path d="M34.4631 125.715H37.2191V134.222C37.2191 135.177 36.9921 136.013 36.5381 136.729C36.0883 137.446 35.4582 138.004 34.6477 138.405C33.8372 138.802 32.8931 139 31.8152 139C30.7332 139 29.7869 138.802 28.9764 138.405C28.166 138.004 27.5358 137.446 27.086 136.729C26.6362 136.013 26.4113 135.177 26.4113 134.222V125.715H29.1674V133.985C29.1674 134.484 29.2756 134.928 29.492 135.316C29.7127 135.704 30.0224 136.009 30.4213 136.23C30.8202 136.452 31.2848 136.563 31.8152 136.563C32.3499 136.563 32.8146 136.452 33.2092 136.23C33.6081 136.009 33.9157 135.704 34.1321 135.316C34.3528 134.928 34.4631 134.484 34.4631 133.985V125.715Z" fill="#1C445D"/>
<path d="M54.7895 125.715V138.814H52.0334V125.715H54.7895Z" fill="#1C445D"/>
<path d="M74.2247 138.814H69.6037V125.715H74.2629C75.5741 125.715 76.7029 125.977 77.6491 126.501C78.5954 127.022 79.3231 127.77 79.8323 128.746C80.3458 129.723 80.6025 130.891 80.6025 132.252C80.6025 133.616 80.3458 134.789 79.8323 135.77C79.3231 136.751 78.5911 137.503 77.6364 138.028C76.6859 138.552 75.5487 138.814 74.2247 138.814ZM72.3598 136.441H74.1102C74.9249 136.441 75.6102 136.296 76.1661 136.006C76.7262 135.712 77.1463 135.258 77.4263 134.644C77.7106 134.026 77.8528 133.228 77.8528 132.252C77.8528 131.284 77.7106 130.493 77.4263 129.879C77.1463 129.265 76.7283 128.813 76.1724 128.523C75.6166 128.233 74.9313 128.088 74.1165 128.088H72.3598V136.441Z" fill="#1C445D"/>
<path d="M95.1908 138.814V125.715H103.975V127.998H97.9469V131.12H103.523V133.403H97.9469V136.531H104V138.814H95.1908Z" fill="#1C445D"/>
</svg>
