<svg width="30" height="30" viewBox="0 0 30 30" fill="none" xmlns="http://www.w3.org/2000/svg">
<g clip-path="url(#clip0_15_90)">
<path d="M15 11.7273C13.1918 11.7273 11.7273 13.1918 11.7273 15C11.7273 16.8082 13.1918 18.2727 15 18.2727C16.8082 18.2727 18.2727 16.8082 18.2727 15C18.2727 13.1918 16.8082 11.7273 15 11.7273ZM22.3145 14.1818C21.9382 10.77 19.23 8.06182 15.8182 7.68545V6H14.1818V7.68545C10.77 8.06182 8.06182 10.77 7.68545 14.1818H6V15.8182H7.68545C8.06182 19.23 10.77 21.9382 14.1818 22.3145V24H15.8182V22.3145C19.23 21.9382 21.9382 19.23 22.3145 15.8182H24V14.1818H22.3145ZM15 20.7273C11.8336 20.7273 9.27273 18.1664 9.27273 15C9.27273 11.8336 11.8336 9.27273 15 9.27273C18.1664 9.27273 20.7273 11.8336 20.7273 15C20.7273 18.1664 18.1664 20.7273 15 20.7273Z" fill="#1C445D"/>
</g>
<defs>
<clipPath id="clip0_15_90">
<rect width="30" height="30" fill="white"/>
</clipPath>
</defs>
</svg>
