<svg width="24" height="24" viewBox="0 0 24 24" fill="none" xmlns="http://www.w3.org/2000/svg">
<path fill-rule="evenodd" clip-rule="evenodd" d="M11.9 3V7.3L11.9 7.35441C11.8999 7.77848 11.8998 8.1906 11.9455 8.53052C11.997 8.91372 12.1226 9.351 12.4858 9.71421C12.849 10.0774 13.2863 10.203 13.6695 10.2545C14.0094 10.3002 14.4215 10.3001 14.8456 10.3H14.8456L14.9 10.3H19.1998V15.6C19.1998 18.1456 19.1998 19.4184 18.409 20.2092C17.6182 21 16.3454 21 13.7998 21H10.1998C7.65422 21 6.38143 21 5.59062 20.2092C4.7998 19.4184 4.7998 18.1456 4.7998 15.6V8.4C4.7998 5.85442 4.7998 4.58162 5.59062 3.79081C6.38143 3 7.65422 3 10.1998 3H11.9ZM13.9 3.00728V7.3C13.9 7.79967 13.9021 8.07383 13.9277 8.26402L13.9287 8.27131L13.936 8.27231C14.1262 8.29788 14.4003 8.3 14.9 8.3H19.1925C19.1805 7.98417 19.1483 7.76323 19.0628 7.55675C18.9258 7.22597 18.6656 6.96584 18.1454 6.44559L15.7542 4.05442C15.234 3.53416 14.9738 3.27403 14.6431 3.13702C14.4366 3.05151 14.2157 3.01936 13.9 3.00728ZM8.2998 12.9C8.2998 12.3477 8.74752 11.9 9.2998 11.9H14.6998C15.2521 11.9 15.6998 12.3477 15.6998 12.9C15.6998 13.4523 15.2521 13.9 14.6998 13.9H9.2998C8.74752 13.9 8.2998 13.4523 8.2998 12.9ZM9.2998 15.5C8.74752 15.5 8.2998 15.9477 8.2998 16.5C8.2998 17.0523 8.74752 17.5 9.2998 17.5H12.8998C13.4521 17.5 13.8998 17.0523 13.8998 16.5C13.8998 15.9477 13.4521 15.5 12.8998 15.5H9.2998Z" fill="#1C445D"/>
</svg>
