<svg width="24" height="24" viewBox="0 0 24 24" fill="none" xmlns="http://www.w3.org/2000/svg">
<path d="M12 10.8889C13.1935 10.8889 14.3381 10.4206 15.182 9.58714C16.0259 8.75365 16.5 7.62318 16.5 6.44444C16.5 5.2657 16.0259 4.13524 15.182 3.30175C14.3381 2.46825 13.1935 2 12 2C10.8065 2 9.66193 2.46825 8.81802 3.30175C7.97411 4.13524 7.5 5.2657 7.5 6.44444C7.5 7.62318 7.97411 8.75365 8.81802 9.58714C9.66193 10.4206 10.8065 10.8889 12 10.8889ZM12 13.1111C10.2533 13.1098 8.53029 13.5109 6.96795 14.2824C5.40562 15.0539 4.04699 16.1746 3 17.5556C4.04699 18.9365 5.40562 20.0572 6.96795 20.8287C8.53029 21.6002 10.2533 22.0013 12 22C13.7467 22.0013 15.4697 21.6002 17.032 20.8287C18.5944 20.0572 19.953 18.9365 21 17.5556C19.953 16.1746 18.5944 15.0539 17.032 14.2824C15.4697 13.5109 13.7467 13.1098 12 13.1111Z" fill="#1C445D"/>
</svg>
