<svg width="50" height="50" viewBox="0 0 50 50" fill="none" xmlns="http://www.w3.org/2000/svg">
<circle cx="25" cy="25" r="25" fill="#489F89"/>
<path d="M20.336 15.9088C19.8583 14.9139 19.1257 15.002 18.3855 15.002C17.0626 15.002 15 16.6453 15 19.7036C15 22.21 16.065 24.9537 19.6535 29.058C23.1168 33.019 27.6673 35.068 31.445 34.9983C35.2228 34.9285 36 31.557 36 30.4185C36 29.9138 35.698 29.662 35.49 29.5936C34.2027 28.9529 31.8283 27.759 31.2881 27.5346C30.7478 27.3103 30.4657 27.6137 30.2904 27.7788C29.8005 28.263 28.8293 29.69 28.4968 30.0109C28.1643 30.3319 27.6685 30.1695 27.4622 30.0481C26.7031 29.7322 24.6448 28.7827 23.004 27.1332C20.9749 25.0932 20.8558 24.3914 20.4735 23.7666C20.1677 23.2668 20.3921 22.9602 20.5041 22.8262C20.9413 22.303 21.545 21.4953 21.8157 21.0939C22.0864 20.6925 21.8715 20.0831 21.7425 19.7036C21.1879 18.0712 20.7181 16.7048 20.336 15.9088Z" fill="white"/>
</svg>
